<svg width="137" height="121" viewBox="0 0 137 121" fill="none" xmlns="http://www.w3.org/2000/svg">
<g clip-path="url(#clip0_11_2)">
<g filter="url(#filter0_f_11_2)">
<path d="M68.5 6L83.8792 46.768H133.647L93.3841 71.964L108.763 112.732L68.5 87.536L28.2367 112.732L43.6159 71.964L3.35263 46.768H53.1208L68.5 6Z" fill="black"/>
<path d="M68.5 7.4166L83.4114 46.9445L83.5334 47.268H83.8792H131.906L93.1188 71.5402L92.7717 71.7574L92.9163 72.1405L107.772 111.522L68.7652 87.1121L68.5 86.9462L68.2348 87.1121L29.2275 111.522L44.0837 72.1405L44.2283 71.7574L43.8812 71.5402L5.09418 47.268H53.1208H53.4666L53.5886 46.9445L68.5 7.4166Z" stroke="black"/>
</g>
<path d="M64.984 69.832C64.344 69.976 63.688 70.072 63.016 70.12C62.36 70.184 61.712 70.216 61.072 70.216C60.448 70.216 59.96 70.2 59.608 70.168C59.272 70.136 58.824 70.056 58.264 69.928C57.704 69.8 57.192 69.624 56.728 69.4C56.264 69.176 55.768 68.848 55.24 68.416C54.728 67.984 54.296 67.472 53.944 66.88C53.128 65.504 52.72 63.728 52.72 61.552C52.72 60.096 52.944 58.808 53.392 57.688C53.856 56.568 54.408 55.704 55.048 55.096C55.704 54.488 56.448 54 57.28 53.632C58.624 53.024 59.976 52.72 61.336 52.72C63.288 52.72 64.688 52.88 65.536 53.2C65.92 53.344 66.264 53.568 66.568 53.872C66.872 54.176 67.024 54.616 67.024 55.192C67.024 55.768 66.88 56.496 66.592 57.376C66.32 58.256 65.92 58.696 65.392 58.696C65.232 58.696 64.64 58.568 63.616 58.312C62.592 58.056 61.896 57.928 61.528 57.928C60.968 57.928 60.488 58.24 60.088 58.864C59.704 59.488 59.512 60.376 59.512 61.528C59.512 62.68 59.68 63.576 60.016 64.216C60.368 64.856 60.824 65.176 61.384 65.176C61.784 65.176 62.504 65.016 63.544 64.696C64.6 64.36 65.216 64.192 65.392 64.192C65.888 64.192 66.272 64.648 66.544 65.56C66.832 66.472 66.976 67.208 66.976 67.768C66.976 68.328 66.8 68.776 66.448 69.112C66.112 69.432 65.624 69.672 64.984 69.832ZM80.926 68.992C80.446 69.344 79.774 69.64 78.91 69.88C78.062 70.104 76.958 70.216 75.598 70.216C74.254 70.216 72.974 70.104 71.758 69.88C70.542 69.656 69.67 69.408 69.142 69.136C68.614 68.864 68.35 68.6 68.35 68.344C68.35 67.448 68.478 66.52 68.734 65.56C68.99 64.584 69.294 64.096 69.646 64.096C69.71 64.096 70.374 64.312 71.638 64.744C72.902 65.176 73.854 65.392 74.494 65.392C75.134 65.392 75.55 65.328 75.742 65.2C75.934 65.056 76.03 64.856 76.03 64.6C76.03 64.344 75.854 64.12 75.502 63.928C75.15 63.72 74.71 63.544 74.182 63.4C73.654 63.24 73.078 63.016 72.454 62.728C71.846 62.44 71.278 62.12 70.75 61.768C70.222 61.416 69.782 60.92 69.43 60.28C69.078 59.624 68.902 58.88 68.902 58.048C68.902 54.496 71.022 52.72 75.262 52.72C76.846 52.72 78.214 52.824 79.366 53.032C80.518 53.224 81.326 53.448 81.79 53.704C82.27 53.944 82.51 54.184 82.51 54.424C82.51 55.256 82.31 56.152 81.91 57.112C81.526 58.072 81.15 58.552 80.782 58.552C80.718 58.552 80.51 58.48 80.158 58.336C79.102 57.872 78.222 57.64 77.518 57.64C76.83 57.64 76.358 57.704 76.102 57.832C75.862 57.96 75.742 58.16 75.742 58.432C75.742 58.688 75.918 58.904 76.27 59.08C76.622 59.24 77.054 59.392 77.566 59.536C78.094 59.664 78.662 59.872 79.27 60.16C79.894 60.432 80.47 60.76 80.998 61.144C81.526 61.512 81.966 62.04 82.318 62.728C82.67 63.416 82.846 64.216 82.846 65.128C82.846 66.088 82.598 66.96 82.102 67.744C81.798 68.224 81.406 68.64 80.926 68.992Z" fill="white"/>
</g>
<defs>
<filter id="filter0_f_11_2" x="-0.647369" y="2" width="138.295" height="114.732" filterUnits="userSpaceOnUse" color-interpolation-filters="sRGB">
<feFlood flood-opacity="0" result="BackgroundImageFix"/>
<feBlend mode="normal" in="SourceGraphic" in2="BackgroundImageFix" result="shape"/>
<feGaussianBlur stdDeviation="2" result="effect1_foregroundBlur_11_2"/>
</filter>
<clipPath id="clip0_11_2">
<rect width="137" height="121" fill="white"/>
</clipPath>
</defs>
</svg>
